<?xml version="1.0" standalone="no"?><!DOCTYPE svg PUBLIC "-//W3C//DTD SVG 1.1//EN" "http://www.w3.org/Graphics/SVG/1.1/DTD/svg11.dtd"><svg t="1589766436848" class="icon" viewBox="0 0 1024 1024" version="1.1" xmlns="http://www.w3.org/2000/svg" p-id="2492" xmlns:xlink="http://www.w3.org/1999/xlink" width="200" height="200"><defs><style type="text/css"></style></defs><path d="M192 85.333333h149.333333a42.666667 42.666667 0 0 1 42.666667 42.666667v533.333333a42.666667 42.666667 0 0 1-42.666667 42.666667H192a42.666667 42.666667 0 0 1-42.666667-42.666667V128a42.666667 42.666667 0 0 1 42.666667-42.666667z" fill="#333549" p-id="2493"></path><path d="M192 106.666667a21.333333 21.333333 0 0 0-21.333333 21.333333v533.333333a21.333333 21.333333 0 0 0 21.333333 21.333334h149.333333a21.333333 21.333333 0 0 0 21.333334-21.333334V128a21.333333 21.333333 0 0 0-21.333334-21.333333H192z" fill="#7DACFF" p-id="2494"></path><path d="M448 85.333333h149.333333a42.666667 42.666667 0 0 1 42.666667 42.666667v533.333333a42.666667 42.666667 0 0 1-42.666667 42.666667h-149.333333a42.666667 42.666667 0 0 1-42.666667-42.666667V128a42.666667 42.666667 0 0 1 42.666667-42.666667z" fill="#333549" p-id="2495"></path><path d="M448 106.666667a21.333333 21.333333 0 0 0-21.333333 21.333333v533.333333a21.333333 21.333333 0 0 0 21.333333 21.333334h149.333333a21.333333 21.333333 0 0 0 21.333334-21.333334V128a21.333333 21.333333 0 0 0-21.333334-21.333333h-149.333333z" fill="#FFEEB4" p-id="2496"></path><path d="M704 85.333333h149.333333a42.666667 42.666667 0 0 1 42.666667 42.666667v533.333333a42.666667 42.666667 0 0 1-42.666667 42.666667h-149.333333a42.666667 42.666667 0 0 1-42.666667-42.666667V128a42.666667 42.666667 0 0 1 42.666667-42.666667z" fill="#333549" p-id="2497"></path><path d="M704 106.666667a21.333333 21.333333 0 0 0-21.333333 21.333333v533.333333a21.333333 21.333333 0 0 0 21.333333 21.333334h149.333333a21.333333 21.333333 0 0 0 21.333334-21.333334V128a21.333333 21.333333 0 0 0-21.333334-21.333333h-149.333333z" fill="#FFFFFF" p-id="2498"></path><path d="M714.666667 341.333333h64a10.666667 10.666667 0 1 0 0-21.333333h-64a10.666667 10.666667 0 1 0 0 21.333333zM821.333333 341.333333h21.333334a10.666667 10.666667 0 1 0 0-21.333333h-21.333334a10.666667 10.666667 0 1 0 0 21.333333zM213.333333 149.333333h106.666667a21.333333 21.333333 0 0 1 21.333333 21.333334v85.333333a21.333333 21.333333 0 0 1-21.333333 21.333333h-106.666667a21.333333 21.333333 0 0 1-21.333333-21.333333V170.666667a21.333333 21.333333 0 0 1 21.333333-21.333334z" fill="#333549" p-id="2499"></path><path d="M213.333333 170.666667v85.333333h106.666667V170.666667z" fill="#FFFFFF" p-id="2500"></path><path d="M202.666667 341.333333h64a10.666667 10.666667 0 1 0 0-21.333333h-64a10.666667 10.666667 0 1 0 0 21.333333zM309.333333 341.333333h21.333334a10.666667 10.666667 0 1 0 0-21.333333h-21.333334a10.666667 10.666667 0 1 0 0 21.333333zM469.333333 149.333333h106.666667a21.333333 21.333333 0 0 1 21.333333 21.333334v85.333333a21.333333 21.333333 0 0 1-21.333333 21.333333h-106.666667a21.333333 21.333333 0 0 1-21.333333-21.333333V170.666667a21.333333 21.333333 0 0 1 21.333333-21.333334z" fill="#333549" p-id="2501"></path><path d="M469.333333 170.666667v85.333333h106.666667V170.666667z" fill="#FFFFFF" p-id="2502"></path><path d="M458.666667 341.333333h64a10.666667 10.666667 0 1 0 0-21.333333h-64a10.666667 10.666667 0 1 0 0 21.333333zM565.333333 341.333333h21.333334a10.666667 10.666667 0 1 0 0-21.333333h-21.333334a10.666667 10.666667 0 1 0 0 21.333333zM725.333333 149.333333h106.666667a21.333333 21.333333 0 0 1 21.333333 21.333334v85.333333a21.333333 21.333333 0 0 1-21.333333 21.333333h-106.666667a21.333333 21.333333 0 0 1-21.333333-21.333333V170.666667a21.333333 21.333333 0 0 1 21.333333-21.333334z" fill="#333549" p-id="2503"></path><path d="M725.333333 170.666667v85.333333h106.666667V170.666667z" fill="#FFFFFF" p-id="2504"></path><path d="M533.333333 576h405.333334a42.666667 42.666667 0 0 1 42.666666 42.666667v277.333333a42.666667 42.666667 0 0 1-42.666666 42.666667H106.666667a42.666667 42.666667 0 0 1-42.666667-42.666667V554.666667a42.666667 42.666667 0 0 1 42.666667-42.666667h345.002666a42.666667 42.666667 0 0 1 30.165334 12.501333L533.333333 576z" fill="#333549" p-id="2505"></path><path d="M466.752 539.584a21.333333 21.333333 0 0 0-15.082667-6.250667H106.666667a21.333333 21.333333 0 0 0-21.333334 21.333334v341.333333a21.333333 21.333333 0 0 0 21.333334 21.333333h832a21.333333 21.333333 0 0 0 21.333333-21.333333V618.666667a21.333333 21.333333 0 0 0-21.333333-21.333334H524.501333l-57.749333-57.749333z" fill="#B9BECA" p-id="2506"></path><path d="M170.666667 576h234.666666a42.666667 42.666667 0 0 1 42.666667 42.666667v213.333333a42.666667 42.666667 0 0 1-42.666667 42.666667H170.666667a42.666667 42.666667 0 0 1-42.666667-42.666667V618.666667a42.666667 42.666667 0 0 1 42.666667-42.666667z" fill="#333549" p-id="2507"></path><path d="M170.666667 597.333333a21.333333 21.333333 0 0 0-21.333334 21.333334v213.333333a21.333333 21.333333 0 0 0 21.333334 21.333333h234.666666a21.333333 21.333333 0 0 0 21.333334-21.333333V618.666667a21.333333 21.333333 0 0 0-21.333334-21.333334H170.666667z" fill="#FFFFFF" p-id="2508"></path><path d="M251.733333 721.749333a53.333333 53.333333 0 1 1 72.554667 0A96.021333 96.021333 0 0 1 384 810.666667v10.666666H192V810.666667a96.021333 96.021333 0 0 1 59.733333-88.917334z" fill="#333549" p-id="2509"></path><path d="M288 714.666667a32 32 0 1 1 0-64 32 32 0 0 1 0 64z m-73.92 85.333333a74.666667 74.666667 0 0 1 147.84 0h-147.84z" fill="#7DACFF" p-id="2510"></path><path d="M608 661.333333H960a21.333333 21.333333 0 0 1 21.333333 21.333334v149.333333a21.333333 21.333333 0 0 1-21.333333 21.333333H608a96 96 0 1 1 0-192z" fill="#333549" p-id="2511"></path><path d="M608 682.666667a74.666667 74.666667 0 0 0 0 149.333333H960v-149.333333H608z" fill="#FFEEB4" p-id="2512"></path><path d="M704 725.333333h256a21.333333 21.333333 0 0 1 21.333333 21.333334v21.333333a21.333333 21.333333 0 0 1-21.333333 21.333333H704a21.333333 21.333333 0 0 1-21.333333-21.333333v-21.333333a21.333333 21.333333 0 0 1 21.333333-21.333334z" fill="#333549" p-id="2513"></path><path d="M704 746.666667v21.333333h256v-21.333333z" fill="#7DACFF" p-id="2514"></path><path d="M608 725.333333a32 32 0 1 1 0 64 32 32 0 0 1 0-64z" fill="#333549" p-id="2515"></path><path d="M608 746.666667a10.666667 10.666667 0 1 0 0 21.333333 10.666667 10.666667 0 0 0 0-21.333333z" fill="#FFFFFF" p-id="2516"></path></svg>