<?xml version="1.0" standalone="no"?><!DOCTYPE svg PUBLIC "-//W3C//DTD SVG 1.1//EN" "http://www.w3.org/Graphics/SVG/1.1/DTD/svg11.dtd"><svg t="1589766262692" class="icon" viewBox="0 0 1024 1024" version="1.1" xmlns="http://www.w3.org/2000/svg" p-id="5748" xmlns:xlink="http://www.w3.org/1999/xlink" width="200" height="200"><defs><style type="text/css"></style></defs><path d="M256 42.666667h554.666667a64 64 0 0 1 64 64v682.666666a64 64 0 0 1-64 64H256a64 64 0 0 1-64-64V106.666667a64 64 0 0 1 64-64z" fill="#333549" p-id="5749"></path><path d="M256 64a42.666667 42.666667 0 0 0-42.666667 42.666667v682.666666a42.666667 42.666667 0 0 0 42.666667 42.666667h554.666667a42.666667 42.666667 0 0 0 42.666666-42.666667V106.666667a42.666667 42.666667 0 0 0-42.666666-42.666667H256z" fill="#FFFFFF" p-id="5750"></path><path d="M192 106.666667h554.666667a64 64 0 0 1 64 64v661.333333a64 64 0 0 1-64 64H192a64 64 0 0 1-64-64V170.666667a64 64 0 0 1 64-64z" fill="#333549" p-id="5751"></path><path d="M192 128a42.666667 42.666667 0 0 0-42.666667 42.666667v661.333333a42.666667 42.666667 0 0 0 42.666667 42.666667h554.666667a42.666667 42.666667 0 0 0 42.666666-42.666667V170.666667a42.666667 42.666667 0 0 0-42.666666-42.666667H192z" fill="#FFEEB4" p-id="5752"></path><path d="M469.333333 608a202.666667 202.666667 0 1 0 0-405.333333 202.666667 202.666667 0 0 0 0 405.333333z" fill="#333549" p-id="5753"></path><path d="M469.333333 586.666667a181.333333 181.333333 0 1 1 0-362.666667 181.333333 181.333333 0 0 1 0 362.666667z" fill="#FFFFFF" p-id="5754"></path><path d="M432 429.696l98.048-98.048a32 32 0 0 1 45.248 45.248l-120.682667 120.682667a32 32 0 0 1-45.226666 0l-60.373334-60.330667a32 32 0 0 1 45.269334-45.269333l37.717333 37.717333z" fill="#333549" p-id="5755"></path><path d="M379.2 407.061333a10.666667 10.666667 0 0 0-15.082667 15.104l60.330667 60.330667a10.666667 10.666667 0 0 0 15.082667 0l120.682666-120.682667a10.666667 10.666667 0 1 0-15.082666-15.082666l-113.130667 113.130666-52.8-52.8z" fill="#7DACFF" p-id="5756"></path><path d="M533.333333 704h384a42.666667 42.666667 0 0 1 42.666667 42.666667v192a42.666667 42.666667 0 0 1-42.666667 42.666666H106.666667a42.666667 42.666667 0 0 1-42.666667-42.666666V682.666667a42.666667 42.666667 0 0 1 42.666667-42.666667h345.002666a42.666667 42.666667 0 0 1 30.165334 12.501333L533.333333 704z" fill="#333549" p-id="5757"></path><path d="M466.752 667.584a21.333333 21.333333 0 0 0-15.082667-6.250667H106.666667a21.333333 21.333333 0 0 0-21.333334 21.333334v256a21.333333 21.333333 0 0 0 21.333334 21.333333h810.666666a21.333333 21.333333 0 0 0 21.333334-21.333333v-192a21.333333 21.333333 0 0 0-21.333334-21.333334H524.501333l-57.749333-57.749333z" fill="#B9BECA" p-id="5758"></path><path d="M405.333333 725.333333H85.333333a21.333333 21.333333 0 0 0-21.333333 21.333334v128a21.333333 21.333333 0 0 0 21.333333 21.333333h320a85.333333 85.333333 0 1 0 0-170.666667z" fill="#333549" p-id="5759"></path><path d="M405.333333 746.666667a64 64 0 0 1 0 128H85.333333v-128h320z" fill="#FFFFFF" p-id="5760"></path><path d="M85.333333 778.666667h192a21.333333 21.333333 0 0 1 21.333334 21.333333v21.333333a21.333333 21.333333 0 0 1-21.333334 21.333334H85.333333a21.333333 21.333333 0 0 1-21.333333-21.333334v-21.333333a21.333333 21.333333 0 0 1 21.333333-21.333333z" fill="#333549" p-id="5761"></path><path d="M85.333333 800v21.333333h192v-21.333333z" fill="#FFEEB4" p-id="5762"></path><path d="M384 768a42.666667 42.666667 0 1 1 0 85.333333 42.666667 42.666667 0 0 1 0-85.333333z" fill="#333549" p-id="5763"></path><path d="M384 789.333333a21.333333 21.333333 0 1 0 0 42.666667 21.333333 21.333333 0 0 0 0-42.666667z" fill="#7DACFF" p-id="5764"></path><path d="M736 928H832a10.666667 10.666667 0 1 0 0-21.333333h-96a10.666667 10.666667 0 1 0 0 21.333333zM874.666667 928h21.333333a10.666667 10.666667 0 1 0 0-21.333333h-21.333333a10.666667 10.666667 0 1 0 0 21.333333zM645.525333 900.565333l91.797334-73.344a10.666667 10.666667 0 0 0-1.322667-17.578666l-74.197333-42.816a10.666667 10.666667 0 0 0-15.872 7.637333l-17.621334 116.16a10.666667 10.666667 0 0 0 17.216 9.941333z" fill="#333549" p-id="5765"></path><path d="M664.682667 793.109333l47.104 27.2-58.282667 46.570667z" fill="#FFEEB4" p-id="5766"></path><path d="M901.589333 330.517333l92.373334 53.333334-250.666667 434.154666a10.666667 10.666667 0 0 1-14.570667 3.904l-73.898666-42.666666a10.666667 10.666667 0 0 1-3.904-14.570667l250.666666-434.154667z" fill="#333549" p-id="5767"></path><path d="M909.397333 359.658667l-234.666666 406.442666 55.424 32 234.666666-406.442666z" fill="#7DACFF" p-id="5768"></path><path d="M952.064 285.76l55.424 32a21.333333 21.333333 0 0 1 7.808 29.141333l-32 55.424-92.373333-53.333333 32-55.424a21.333333 21.333333 0 0 1 29.141333-7.808z" fill="#333549" p-id="5769"></path><path d="M975.488 373.184l21.333333-36.949333-55.424-32-21.333333 36.949333z" fill="#B9BECA" p-id="5770"></path></svg>