<?xml version="1.0" standalone="no"?><!DOCTYPE svg PUBLIC "-//W3C//DTD SVG 1.1//EN" "http://www.w3.org/Graphics/SVG/1.1/DTD/svg11.dtd"><svg t="1589766535786" class="icon" viewBox="0 0 1024 1024" version="1.1" xmlns="http://www.w3.org/2000/svg" p-id="2653" xmlns:xlink="http://www.w3.org/1999/xlink" width="200" height="200"><defs><style type="text/css"></style></defs><path d="M128 106.666667h768a64 64 0 0 1 64 64v704a64 64 0 0 1-64 64H128a64 64 0 0 1-64-64V170.666667a64 64 0 0 1 64-64z" fill="#333549" p-id="2654"></path><path d="M128 128a42.666667 42.666667 0 0 0-42.666667 42.666667v704a42.666667 42.666667 0 0 0 42.666667 42.666666h768a42.666667 42.666667 0 0 0 42.666667-42.666666V170.666667a42.666667 42.666667 0 0 0-42.666667-42.666667H128z" fill="#B9BECA" p-id="2655"></path><path d="M170.666667 277.333333h682.666666a42.666667 42.666667 0 0 1 42.666667 42.666667v512a42.666667 42.666667 0 0 1-42.666667 42.666667H170.666667a42.666667 42.666667 0 0 1-42.666667-42.666667V320a42.666667 42.666667 0 0 1 42.666667-42.666667z" fill="#333549" p-id="2656"></path><path d="M170.666667 298.666667a21.333333 21.333333 0 0 0-21.333334 21.333333v512a21.333333 21.333333 0 0 0 21.333334 21.333333h682.666666a21.333333 21.333333 0 0 0 21.333334-21.333333V320a21.333333 21.333333 0 0 0-21.333334-21.333333H170.666667z" fill="#FFFFFF" p-id="2657"></path><path d="M266.666667 501.333333a42.666667 42.666667 0 1 0 0-85.333333 42.666667 42.666667 0 0 0 0 85.333333z" fill="#333549" p-id="2658"></path><path d="M266.666667 480a21.333333 21.333333 0 1 1 0-42.666667 21.333333 21.333333 0 0 1 0 42.666667z" fill="#7DACFF" p-id="2659"></path><path d="M266.666667 629.333333a42.666667 42.666667 0 1 0 0-85.333333 42.666667 42.666667 0 0 0 0 85.333333z" fill="#333549" p-id="2660"></path><path d="M266.666667 608a21.333333 21.333333 0 1 1 0-42.666667 21.333333 21.333333 0 0 1 0 42.666667z" fill="#FFEEB4" p-id="2661"></path><path d="M266.666667 757.333333a42.666667 42.666667 0 1 0 0-85.333333 42.666667 42.666667 0 0 0 0 85.333333z" fill="#333549" p-id="2662"></path><path d="M266.666667 736a21.333333 21.333333 0 1 1 0-42.666667 21.333333 21.333333 0 0 1 0 42.666667z" fill="#B9BECA" p-id="2663"></path><path d="M405.333333 469.333333h21.333334a10.666667 10.666667 0 1 0 0-21.333333h-21.333334a10.666667 10.666667 0 1 0 0 21.333333z m85.333334 0h21.333333a10.666667 10.666667 0 1 0 0-21.333333h-21.333333a10.666667 10.666667 0 1 0 0 21.333333z m85.333333 0h21.333333a10.666667 10.666667 0 1 0 0-21.333333h-21.333333a10.666667 10.666667 0 1 0 0 21.333333zM128 106.666667h576l-115.498667 115.498666a42.666667 42.666667 0 0 1-30.165333 12.501334H170.666667a42.666667 42.666667 0 0 1-42.666667-42.666667V106.666667z" fill="#333549" p-id="2664"></path><path d="M149.333333 128v64a21.333333 21.333333 0 0 0 21.333334 21.333333h387.669333a21.333333 21.333333 0 0 0 15.082667-6.250666L652.501333 128H149.333333z" fill="#FFEEB4" p-id="2665"></path><path d="M756.202667 725.333333H405.333333a10.666667 10.666667 0 1 1 0-21.333333h350.933334l-20.8-20.821333a10.666667 10.666667 0 0 1 15.082666-15.082667l38.997334 38.997333a10.666667 10.666667 0 0 1 0 15.082667l-38.997334 38.997333a10.666667 10.666667 0 0 1-15.082666-15.082666l20.736-20.757334z m-106.602667-149.333333l-20.8-20.8a10.666667 10.666667 0 0 1 15.082667-15.082667l38.997333 38.997334a10.666667 10.666667 0 0 1 0 15.104l-38.997333 38.997333a10.666667 10.666667 0 1 1-15.082667-15.082667L649.6 597.333333H405.333333a10.666667 10.666667 0 1 1 0-21.333333h244.266667z" fill="#333549" p-id="2666"></path><path d="M732.885333 223.466667l45.226667-45.248a10.666667 10.666667 0 1 0-15.061333-15.104l-45.269334 45.269333a10.666667 10.666667 0 0 0 15.104 15.082667z" fill="#333549" p-id="2667"></path><path d="M717.781333 178.218667l45.269334 45.226666a10.666667 10.666667 0 1 0 15.082666-15.061333l-45.248-45.269333a10.666667 10.666667 0 0 0-15.104 15.104z" fill="#333549" p-id="2668"></path><path d="M818.218667 223.466667l45.226666-45.248a10.666667 10.666667 0 1 0-15.061333-15.104l-45.269333 45.269333a10.666667 10.666667 0 0 0 15.104 15.082667z" fill="#333549" p-id="2669"></path><path d="M803.114667 178.218667l45.269333 45.226666a10.666667 10.666667 0 1 0 15.082667-15.061333l-45.248-45.269333a10.666667 10.666667 0 0 0-15.104 15.104z" fill="#333549" p-id="2670"></path></svg>