<?xml version="1.0" standalone="no"?><!DOCTYPE svg PUBLIC "-//W3C//DTD SVG 1.1//EN" "http://www.w3.org/Graphics/SVG/1.1/DTD/svg11.dtd"><svg t="1589766029696" class="icon" viewBox="0 0 1024 1024" version="1.1" xmlns="http://www.w3.org/2000/svg" p-id="16186" xmlns:xlink="http://www.w3.org/1999/xlink" width="200" height="200"><defs><style type="text/css"></style></defs><path d="M878.8 879.9V606.7l83.5 62.6v210.6h-83.5zM795.5 398h104.3v104.3H795.5V398z m-42 146.3h83.6v335.5H744c6.1-13.3 9.5-28 9.5-43.6 0-42.7-25.6-79.3-62.3-95.5V377.2h-42V732c-34.1 0-64.3 16.4-83.3 41.7V377.2h-41.5v500.7h29.2c0.3 0.7 0.7 1.3 1 2H473c6.1-13.3 9.6-28 9.6-43.6 0-34.2-16.6-64.5-42-83.5V377.2h-41.5v356.9c-6.7-1.4-13.7-2.1-20.8-2.1-23.5 0-45.1 7.9-62.6 21V502.3h-41.8v375.6h8.6c0.3 0.7 0.7 1.3 1 2H120l-53.7-35.8V285.9l82.2-54.8h21v0.2c0 57.6 46.7 104.3 104.3 104.3 57.6 0 104.3-46.7 104.3-104.3v-0.2h83.3v-62.6h41.8c0.1-23 18.7-41.5 41.8-41.5 23 0 41.7 18.6 41.8 41.5h41.8v62.6h125v83.5h83.5v41.6h-83.6v188.1zM190.3 356.2h-41.8v480.1h41.8V356.2z m125.3 21h-41.8v83.3h41.8v-83.3z m-41.9-83.5c-34.5 0-62.4-28-62.4-62.6 0-34.5 28-62.6 62.4-62.6 34.5 0 62.4 28 62.4 62.6s-27.9 62.6-62.4 62.6z m0-83.4c-11.5 0-20.9 9.3-20.9 20.8s9.4 20.8 20.9 20.8c11.5 0 20.9-9.3 20.9-20.8s-9.4-20.8-20.9-20.8z m41.9 625.9c0-34.6 28-62.7 62.4-62.7 34.5 0 62.4 28.1 62.4 62.7 0 17-6.8 32.4-17.7 43.7h-89.4c-10.9-11.3-17.7-26.7-17.7-43.7z m62.4 21.1c11.5 0 20.9-9.4 20.9-21s-9.4-21-20.9-21c-11.5 0-20.9 9.4-20.9 21s9.4 21 20.9 21z m292.1 22.6h-41.5v-43.6h41.5v43.6z" fill="#F7F7F7" p-id="16187"></path><path d="M754.8 714.1V537l50.6 37.9V714h-50.6z m-50.6-303.5h63.2v63.2h-63.2v-63.2z m-25.3 88.5h50.6v215l-50.6 50.6H362.8l-50.6-50.6-75.9-50.6V360l75.9-50.6h12.6c0 34.9 28.3 63.2 63.2 63.2 34.9 0 63.2-28.3 63.2-63.2h50.6v-37.9h25.3c0-14 11.3-25.3 25.3-25.3s25.3 11.3 25.3 25.3H603v37.9h75.9V360h50.6v25.3h-50.6v113.8zM337.5 385.3h-25.3v290.9h25.3V385.3z m75.8 12.6H388v50.6h25.3v-50.6z m75.9 227.7V397.9h-25.3v216.3c-4.1-0.8-8.3-1.3-12.6-1.3-14.3 0-27.4 4.8-37.9 12.7V473.8h-25.3v227.6h5.3c9.8 22.3 32 37.9 57.9 37.9 34.9 0 63.2-28.3 63.2-63.2 0-20.6-9.9-38.9-25.3-50.5z m151.8-7.4V397.9h-25.3v215c-20.7 0-39.1 10-50.6 25.4V397.9h-25.3v303.5h17.9c8.1 18.6 25 32.4 45.3 36.5v-61.8h25.3v62c28.9-5.9 50.6-31.4 50.6-62 0-25.9-15.6-48.1-37.9-57.9z m-189.7 95.9c-21 0-37.9-17-37.9-37.9s17-37.9 37.9-37.9c21 0 37.9 17 37.9 37.9s-17 37.9-37.9 37.9z m0-50.6c-7 0-12.6 5.7-12.6 12.6s5.7 12.6 12.6 12.6c7 0 12.6-5.7 12.6-12.6s-5.6-12.6-12.6-12.6z m-63.2-316.2c-21 0-37.9-17-37.9-37.9s17-37.9 37.9-37.9c21 0 37.9 17 37.9 37.9s-17 37.9-37.9 37.9z m0-50.5c-7 0-12.6 5.7-12.6 12.6s5.7 12.6 12.6 12.6c7 0 12.6-5.7 12.6-12.6s-5.7-12.6-12.6-12.6z" fill="#4494EC" p-id="16188"></path></svg>