<?xml version="1.0" standalone="no"?><!DOCTYPE svg PUBLIC "-//W3C//DTD SVG 1.1//EN" "http://www.w3.org/Graphics/SVG/1.1/DTD/svg11.dtd"><svg t="1590676721898" class="icon" viewBox="0 0 1024 1024" version="1.1" xmlns="http://www.w3.org/2000/svg" p-id="13280" xmlns:xlink="http://www.w3.org/1999/xlink" width="200" height="200"><defs><style type="text/css"></style></defs><path d="M764.586667 985.315556c-18.204444 0-34.133333-4.551111-47.786667-13.653334l-209.351111-127.431111-225.28 111.502222c-29.582222 13.653333-63.715556 11.377778-91.022222-6.826666-27.306667-20.48-40.96-52.337778-34.133334-86.471111l52.337778-236.657778-172.942222-161.564445c-25.031111-22.755556-31.857778-56.888889-20.48-88.746666 11.377778-29.582222 38.684444-52.337778 72.817778-54.613334l225.28-25.031111 122.88-213.902222c15.928889-27.306667 45.511111-45.511111 77.368889-43.235556 31.857778 0 61.44 18.204444 75.093333 47.786667l106.951111 211.626667 238.933333 25.031111c34.133333 4.551111 61.44 25.031111 72.817778 54.613333 11.377778 31.857778 2.275556 65.991111-20.48 88.746667L830.577778 614.4c-13.653333 13.653333-36.408889 11.377778-47.786667-2.275556-13.653333-13.653333-11.377778-36.408889 2.275556-47.786666l157.013333-147.911111c4.551111-4.551111 6.826667-9.102222 4.551111-15.928889-2.275556-4.551111-9.102222-9.102222-15.928889-11.377778L671.288889 364.088889c-11.377778-2.275556-22.755556-9.102222-27.306667-18.204445l-113.777778-227.555555c-2.275556-6.826667-9.102222-9.102222-15.928888-9.102222-6.826667 0-13.653333 2.275556-18.204445 9.102222l-131.982222 227.555555c-4.551111 9.102222-15.928889 15.928889-25.031111 18.204445L95.573333 389.12c-6.826667 0-13.653333 4.551111-15.928889 11.377778-2.275556 4.551111 0 11.377778 4.551112 13.653333l186.595555 175.217778c9.102222 9.102222 13.653333 20.48 9.102222 31.857778L223.004444 878.364444c-2.275556 4.551111 0 11.377778 6.826667 13.653334 6.826667 4.551111 15.928889 4.551111 22.755556 2.275555L493.795556 773.688889c11.377778-4.551111 22.755556-4.551111 31.857777 2.275555l227.555556 136.533334c4.551111 2.275556 9.102222 2.275556 11.377778 2.275555 4.551111 0 9.102222-2.275556 13.653333-4.551111 4.551111-4.551111 6.826667-9.102222 4.551111-15.928889l-68.266667-197.973333c-6.826667-18.204444 2.275556-36.408889 20.48-43.235556 18.204444-6.826667 36.408889 2.275556 43.235556 20.48l68.266667 197.973334c11.377778 34.133333 0 72.817778-29.582223 93.297778-13.653333 13.653333-34.133333 20.48-52.337777 20.48z" fill="#74b9ff" p-id="13281"></path><path d="M705.422222 625.777778c-13.653333 0-27.306667-9.102222-31.857778-22.755556l-11.377777-36.408889c-6.826667-18.204444 2.275556-36.408889 20.48-43.235555 18.204444-6.826667 36.408889 2.275556 43.235555 20.48l11.377778 36.408889c6.826667 18.204444-2.275556 36.408889-20.48 43.235555-2.275556 0-6.826667 2.275556-11.377778 2.275556z" fill="#74b9ff" p-id="13282"></path></svg>