<?xml version="1.0" standalone="no"?><!DOCTYPE svg PUBLIC "-//W3C//DTD SVG 1.1//EN" "http://www.w3.org/Graphics/SVG/1.1/DTD/svg11.dtd"><svg t="1589026356691" class="icon" viewBox="0 0 1024 1024" version="1.1" xmlns="http://www.w3.org/2000/svg" p-id="4336" xmlns:xlink="http://www.w3.org/1999/xlink" width="200" height="200"><defs><style type="text/css"></style></defs><path d="M170.666667 106.666667h576a64 64 0 0 1 64 64v746.666666a64 64 0 0 1-64 64H170.666667a64 64 0 0 1-64-64V170.666667a64 64 0 0 1 64-64z" fill="#333549" p-id="4337"></path><path d="M170.666667 128a42.666667 42.666667 0 0 0-42.666667 42.666667v746.666666a42.666667 42.666667 0 0 0 42.666667 42.666667h576a42.666667 42.666667 0 0 0 42.666666-42.666667V170.666667a42.666667 42.666667 0 0 0-42.666666-42.666667H170.666667z" fill="#FFEEB4" p-id="4338"></path><path d="M213.333333 213.333333h490.666667a42.666667 42.666667 0 0 1 42.666667 42.666667v618.666667a42.666667 42.666667 0 0 1-42.666667 42.666666H213.333333a42.666667 42.666667 0 0 1-42.666666-42.666666V256a42.666667 42.666667 0 0 1 42.666666-42.666667z" fill="#333549" p-id="4339"></path><path d="M213.333333 234.666667a21.333333 21.333333 0 0 0-21.333333 21.333333v618.666667a21.333333 21.333333 0 0 0 21.333333 21.333333h490.666667a21.333333 21.333333 0 0 0 21.333333-21.333333V256a21.333333 21.333333 0 0 0-21.333333-21.333333H213.333333z" fill="#FFFFFF" p-id="4340"></path><path d="M256 693.333333h213.333333a10.666667 10.666667 0 1 0 0-21.333333H256a10.666667 10.666667 0 1 0 0 21.333333zM256 757.333333h213.333333a10.666667 10.666667 0 1 0 0-21.333333H256a10.666667 10.666667 0 1 0 0 21.333333zM256 821.333333h213.333333a10.666667 10.666667 0 1 0 0-21.333333H256a10.666667 10.666667 0 1 0 0 21.333333zM288 42.666667h341.333333a74.666667 74.666667 0 0 1 0 149.333333h-341.333333a74.666667 74.666667 0 0 1 0-149.333333z" fill="#333549" p-id="4341"></path><path d="M288 64a53.333333 53.333333 0 1 0 0 106.666667h341.333333a53.333333 53.333333 0 1 0 0-106.666667h-341.333333z" fill="#B9BECA" p-id="4342"></path><path d="M288 85.333333a32 32 0 1 1 0 64 32 32 0 0 1 0-64z" fill="#333549" p-id="4343"></path><path d="M288 106.666667a10.666667 10.666667 0 1 0 0 21.333333 10.666667 10.666667 0 0 0 0-21.333333z" fill="#FFFFFF" p-id="4344"></path><path d="M629.333333 85.333333a32 32 0 1 1 0 64 32 32 0 0 1 0-64z" fill="#333549" p-id="4345"></path><path d="M629.333333 106.666667a10.666667 10.666667 0 1 0 0 21.333333 10.666667 10.666667 0 0 0 0-21.333333z" fill="#FFFFFF" p-id="4346"></path><path d="M310.869333 362.666667a170.666667 170.666667 0 1 1 295.594667 170.666666 170.666667 170.666667 0 0 1-295.594667-170.666666z" fill="#333549" p-id="4347"></path><path d="M329.344 373.333333a149.333333 149.333333 0 1 0 258.645333 149.333334 149.333333 149.333333 0 0 0-258.645333-149.333334z" fill="#7DACFF" p-id="4348"></path><path d="M578.837333 492.48l-4.437333 11.733333-10.88-6.250666a281548.437333 281548.437333 0 0 1-157.312-90.88l-43.093333-24.896-10.944-6.336 8.085333-9.728a128.021333 128.021333 0 0 1 162.410667-28.970667c54.656 31.552 78.165333 97.216 56.170666 155.328z" fill="#333549" p-id="4349"></path><path d="M512 355.626667a106.752 106.752 0 0 0-126.592 14.784 268993.621333 268993.621333 0 0 1 177.258667 102.4c11.093333-45.056-8.832-93.034667-50.666667-117.184z" fill="#FFFFFF" p-id="4350"></path><path d="M554.944 515.904l10.88 6.272-7.957333 9.728c-39.338667 48.085333-107.946667 60.565333-162.624 29.013333a128.021333 128.021333 0 0 1-56.106667-155.157333l4.394667-11.861333 10.944 6.336a249379.925333 249379.925333 0 0 0 110.08 63.509333l90.389333 52.16z" fill="#333549" p-id="4351"></path><path d="M453.888 482.218667a544741.632 544741.632 0 0 1-98.453333-56.810667 106.752 106.752 0 0 0 50.474666 117.034667c41.834667 24.149333 93.354667 17.408 126.826667-14.72l-78.848-45.504z" fill="#FFFFFF" p-id="4352"></path><path d="M581.525333 836.565333l91.797334-73.344a10.666667 10.666667 0 0 0-1.322667-17.578666l-74.197333-42.816a10.666667 10.666667 0 0 0-15.872 7.637333l-17.621334 116.16a10.666667 10.666667 0 0 0 17.216 9.941333z" fill="#333549" p-id="4353"></path><path d="M600.682667 729.109333l47.104 27.2-58.282667 46.570667z" fill="#FFEEB4" p-id="4354"></path><path d="M837.589333 266.517333l92.373334 53.333334-250.666667 434.154666a10.666667 10.666667 0 0 1-14.570667 3.904l-73.898666-42.666666a10.666667 10.666667 0 0 1-3.904-14.570667l250.666666-434.154667z" fill="#333549" p-id="4355"></path><path d="M845.397333 295.658667l-234.666666 406.442666 55.424 32 234.666666-406.442666z" fill="#7DACFF" p-id="4356"></path><path d="M888.064 221.76l55.424 32a21.333333 21.333333 0 0 1 7.808 29.141333l-32 55.424-92.373333-53.333333 32-55.424a21.333333 21.333333 0 0 1 29.141333-7.808z" fill="#333549" p-id="4357"></path><path d="M911.488 309.184l21.333333-36.949333-55.424-32-21.333333 36.949333z" fill="#B9BECA" p-id="4358"></path></svg>