<?xml version="1.0" standalone="no"?><!DOCTYPE svg PUBLIC "-//W3C//DTD SVG 1.1//EN" "http://www.w3.org/Graphics/SVG/1.1/DTD/svg11.dtd"><svg t="1589026256799" class="icon" viewBox="0 0 1024 1024" version="1.1" xmlns="http://www.w3.org/2000/svg" p-id="3133" xmlns:xlink="http://www.w3.org/1999/xlink" width="200" height="200"><defs><style type="text/css"></style></defs><path d="M874.618273 477.026464c-2.844791-15.516392-18.151405-31.345915-34.128285-34.768875l-11.883655-2.687202c-27.945469-8.229428-52.719712-26.2652-68.529793-52.783157-15.725146-26.66429-19.48375-57.023738-12.628622-84.779895l0 0 3.768837-10.917654c4.765537-15.074324-1.428535-35.901675-13.899568-46.252417 0 0-11.211343-9.216919-42.661635-26.916023-31.535227-17.615193-45.098127-22.528086-45.098127-22.528086-15.305591-5.458315-36.805254-0.252757-48.01762 11.337209l-8.292873 8.651031c-21.164019 19.589151-49.695842 31.40936-81.232093 31.40936-31.535227 0-60.319807-11.989055-81.494059-31.661094l-8.030907-8.398274c-11.04352-11.589966-32.627095-16.712637-48.016597-11.337209 0 0-13.730723 4.912893-45.26595 22.528086-31.535227 17.866926-42.578748 27.083845-42.578748 27.083845-12.472056 10.18292-18.665105 30.842449-13.899568 46.084595l3.433192 11.001565c6.697539 27.840068 3.180436 58.031695-12.628622 84.695984-15.809057 26.66429-40.836057 44.867884-68.949348 52.950979l-11.452843 2.51938c-15.736403 3.50687-31.209816 19.168572-34.138518 34.768875 0 0-2.593058 13.941524-2.593058 49.423643 0 35.481096 2.593058 49.423643 2.593058 49.423643 2.844791 15.661701 18.150382 31.324426 34.138518 34.768875l11.20111 2.518357c28.113291 8.083096 53.308113 26.28669 69.033259 53.117778 15.725146 26.666336 19.493983 57.025785 12.628622 84.760452l0 0-3.26537 10.770298c-4.765537 15.0733 1.428535 35.901675 13.899568 46.252417 0 0 11.211343 9.215896 42.662659 26.916023 31.535227 17.700127 45.098127 22.529109 45.098127 22.529109 15.305591 5.458315 36.805254 0.230244 48.016597-11.338233l7.873318-8.250918c21.331841-19.673062 50.03251-31.724539 81.651648-31.724539 31.618115 0 60.486606 12.135388 81.650625 31.80845l0 0 7.873318 8.250918c11.04352 11.568477 32.627095 16.712637 48.016597 11.338233 0 0 13.72049-4.912893 45.264926-22.529109 31.53625-17.698081 42.578748-26.916023 42.578748-26.916023 12.472056-10.205433 18.665105-31.011294 13.899568-46.25344l-3.433192-11.169387c-6.696516-27.672246-3.179412-57.862849 12.630668-84.359316 15.725146-26.684756 41.002856-44.972261 69.032236-53.118801l0 0 11.211343-2.51938c15.72617-3.526313 31.199583-19.190061 34.129308-34.768875 0 0 2.593058-13.941524 2.593058-49.422619C877.210307 491.050876 874.618273 477.026464 874.618273 477.026464L874.618273 477.026464 874.618273 477.026464 874.618273 477.026464zM512.014838 668.547429c-80.402191 0-145.740292-63.532989-145.740292-142.097322 0-78.397534 65.170279-141.950989 145.740292-141.950989 80.402191 0 145.750525 63.553455 145.750525 142.117788C657.597541 605.01444 592.418053 668.547429 512.014838 668.547429L512.014838 668.547429 512.014838 668.547429 512.014838 668.547429zM512.014838 668.547429" p-id="3134" fill="#707070"></path></svg>