<?xml version="1.0" standalone="no"?><!DOCTYPE svg PUBLIC "-//W3C//DTD SVG 1.1//EN" "http://www.w3.org/Graphics/SVG/1.1/DTD/svg11.dtd"><svg t="1590111038663" class="icon" viewBox="0 0 1024 1024" version="1.1" xmlns="http://www.w3.org/2000/svg" p-id="13002" xmlns:xlink="http://www.w3.org/1999/xlink" width="200" height="200"><defs><style type="text/css"></style></defs><path d="M881.330528 777.382793H470.273502v-45.836785h411.057026v45.836785z m42.548555-94.139741h45.780091l-0.113387 4.733916-0.340162 4.677223-0.538589 4.620529-0.765364 4.535489-0.935445 4.478796-1.162219 4.422101-1.360646 4.308715-1.530728 4.223674-1.729155 4.110286-1.899236 4.025247-2.069317 3.940206-2.239397 3.798472-2.409479 3.685084-2.579559 3.543351-2.721293 3.429964-2.891375 3.288229-3.033108 3.146495-3.174842 2.976415-3.316576 2.83468-3.429964 2.692947-3.600044 2.494519-3.713431 2.352785-3.826819 2.12601-3.940206 1.95593-4.08194 1.757502-4.16698 1.530727-4.252021 1.3323-4.365408 1.105525-4.450449 0.878751-4.507142 0.62363-4.563836 0.368509-4.620529 0.141734v-45.836785l2.097664-0.056693 2.04097-0.170081 2.012623-0.283468 1.984276-0.368509 1.984277-0.510242 1.927582-0.595283 1.899236-0.70867 1.87089-0.793711 1.842542-0.907098 1.814196-1.020485 1.757501-1.105525 1.729156-1.218913 1.672461-1.303953 1.644115-1.388993 1.587421-1.502381 1.502381-1.587421 1.474034-1.644115 1.388993-1.757502 1.3323-1.842542 1.247259-1.899236 1.162219-1.984276 1.077179-2.04097 0.992138-2.126011 0.907098-2.154357 0.822057-2.239398 0.70867-2.296091 0.62363-2.352785 0.510243-2.381131 0.396855-2.466172 0.311815-2.466173 0.170081-2.551212 0.056693-2.579559z m45.780091-535.896357v535.896357h-45.780091V147.346695h45.780091z m-88.328646-48.302957V53.235301l4.620529 0.113387 4.563836 0.396855 4.507142 0.62363 4.450449 0.878751 4.365408 1.105525 4.252021 1.303953 4.16698 1.559075 4.08194 1.757502 3.940206 1.927582 3.826819 2.154358 3.713431 2.324438 3.600044 2.522865 3.429964 2.6646 3.316576 2.83468 3.174842 3.004762 3.033108 3.146495 2.891375 3.28823 2.721293 3.429963 2.579559 3.543351 2.409479 3.685085 2.239397 3.798471 2.069317 3.91186 1.899236 4.025246 1.729155 4.138634 1.530728 4.223674 1.360646 4.308714 1.162219 4.393755 0.935445 4.478795 0.765364 4.563836 0.538589 4.620529 0.340162 4.677223 0.113387 4.70557h-45.780091l-0.056693-2.57956-0.170081-2.522865-0.311815-2.494519-0.396855-2.437825-0.510243-2.381132-0.62363-2.352785-0.70867-2.296091-0.822057-2.239398-0.907098-2.182704-0.992138-2.097663-1.077179-2.069317-1.162219-1.984277-1.247259-1.899236-1.3323-1.814195-1.388993-1.757502-1.474034-1.672462-1.502381-1.587421-1.587421-1.474034-1.644115-1.388993-1.672461-1.303953-1.729156-1.218913-1.757501-1.105525-1.814196-1.020485-1.842542-0.907098-1.87089-0.79371-1.899236-0.708671-1.927582-0.623629-1.984277-0.481896-1.984276-0.396855-2.012623-0.283468-2.04097-0.170081-2.097664-0.056694zM142.669472 53.235301h738.661056v45.808437H142.669472V53.235301zM100.120917 147.346695H54.369173l0.113387-4.70557 0.311815-4.677223 0.538589-4.620529 0.765364-4.563836 0.963791-4.478795 1.133873-4.393755 1.360646-4.308714 1.530728-4.223674 1.729155-4.138634 1.899236-4.025246 2.069317-3.91186 2.239397-3.798471 2.409479-3.685085 2.579559-3.543351 2.721293-3.429963 2.891375-3.28823 3.033108-3.146495 3.174842-3.004762 3.316576-2.83468 3.45831-2.6646 3.571698-2.522865 3.713431-2.324438 3.826819-2.154358 3.968553-1.927582 4.053593-1.757502 4.16698-1.559075 4.280368-1.303953 4.337061-1.105525 4.450449-0.878751 4.507142-0.62363 4.563836-0.396855 4.620529-0.113387v45.808437l-2.069317 0.056694-2.069317 0.170081-2.012623 0.283468-1.984276 0.396855-1.95593 0.481896-1.927583 0.623629-1.927582 0.708671-1.87089 0.79371-1.842542 0.907098-1.785849 1.020485-1.785848 1.105525-1.729156 1.218913-1.672461 1.303953-1.644115 1.388993-1.559074 1.474034-1.530728 1.587421-1.474034 1.672462-1.388993 1.757502-1.303953 1.814195-1.247259 1.899236-1.190566 1.984277-1.077179 2.069317-0.992138 2.097663-0.907098 2.182704-0.822057 2.239398-0.70867 2.296091-0.62363 2.352785-0.510243 2.381132-0.396855 2.437825-0.311815 2.494519-0.170081 2.522865-0.056693 2.57956zM54.369173 683.243052V147.346695h45.751744v535.896357H54.369173z m88.300299 48.302956v45.836785l-4.620529-0.141734-4.563836-0.368509-4.507142-0.62363-4.450449-0.878751-4.337061-1.105525-4.280368-1.3323-4.16698-1.530727-4.053593-1.757502-3.968553-1.95593-3.826819-2.12601-3.713431-2.352785-3.571698-2.494519-3.45831-2.692947-3.316576-2.83468-3.174842-2.976415-3.033108-3.146495-2.891375-3.288229-2.721293-3.429964-2.579559-3.543351-2.409479-3.685084-2.239397-3.798472-2.069317-3.940206-1.899236-4.025247-1.729155-4.110286-1.530728-4.223674-1.360646-4.308715-1.133873-4.422101-0.963791-4.478796-0.765364-4.535489-0.538589-4.620529-0.311815-4.677223-0.113387-4.733916h45.751744l0.056693 2.579559 0.170081 2.551212 0.311815 2.466173 0.396855 2.466172 0.510243 2.381131 0.62363 2.352785 0.70867 2.296091 0.822057 2.239398 0.907098 2.154357 0.992138 2.126011 1.077179 2.04097 1.190566 1.984276 1.247259 1.899236 1.303953 1.842542 1.388993 1.757502 1.474034 1.644115 1.530728 1.587421 1.559074 1.502381 1.644115 1.388993 1.672461 1.303953 1.729156 1.218913 1.785848 1.105525 1.785849 1.020485 1.842542 0.907098 1.87089 0.793711 1.927582 0.70867 1.927583 0.595283 1.95593 0.510242 1.984276 0.368509 2.012623 0.283468 2.069317 0.170081 2.069317 0.056693z m119.056583 45.836785H142.669472v-45.836785h119.056583v45.836785z m44.674565 0.822057H260.648876v-0.283468l-0.028347-0.113387-0.028347-0.113388v-0.113387l-0.028346-0.113387-0.028347-0.08504-0.028347-0.085041-0.056694-0.056693-0.028346-0.085041-0.028347-0.056693-0.028347-0.056694-0.028347-0.028347-0.028347-0.028347v-0.028346l-0.028346-0.028347 0.028346 0.028347 0.028347 0.028346 0.056694 0.028347 0.056693 0.028347 0.085041 0.056694 0.08504 0.056693 0.113388 0.028347 0.113387 0.056694 0.113387 0.028346 0.170081 0.028347 0.141734 0.028347 0.141734 0.028347 0.170081 0.028347h0.141734v-45.836785l2.381131 0.085041 2.352785 0.198427 2.324438 0.311815 2.296091 0.453549 2.267745 0.566936 2.182704 0.680323 2.154357 0.793711 2.097664 0.907098 2.012623 0.992138 1.95593 1.077179 1.870889 1.190565 1.842542 1.275607 1.729155 1.332299 1.672462 1.445688 1.587421 1.50238 1.50238 1.559075 1.445688 1.644114 1.360646 1.700809 1.275606 1.757502 1.190566 1.814195 1.105526 1.870889 1.020485 1.927583 0.935444 1.984276 0.850404 2.04097 0.737017 2.069317 0.651977 2.126011 0.566936 2.12601 0.481896 2.211051 0.368508 2.211051 0.255121 2.239397 0.141734 2.267745 0.056694 2.296091z m-45.751744 169.655631v-169.655631h45.751744v169.655631l-6.037869 15.505702-39.713875-15.505702z m39.713875 15.505702l-39.713875 43.228878v-58.73458l39.713875 15.505702z m171.328092-186.436939l-171.328092 186.436939-33.676005-31.011405 171.328092-186.436939 33.676005 31.011405z m-1.417341-45.383236v45.836785h0.056694l0.056694-0.028347h0.141734l0.056693-0.028347h0.085041l0.08504-0.028347 0.08504-0.028347 0.085041-0.028346 0.08504-0.028347 0.113388-0.028347 0.08504-0.056694 0.08504-0.028346 0.085041-0.028347 0.08504-0.056694 0.085041-0.028347 0.056693-0.056693 0.056694-0.028347 0.056693-0.028347 0.028347-0.028347 0.056694-0.028347v-0.028346h0.028347l-0.028347 0.028346-0.028347 0.028347-0.028347 0.028347-0.056693 0.056694-33.676005-31.011405 0.737017-0.822058 0.79371-0.765364 0.793711-0.765363 0.822057-0.765364 0.822058-0.737017 0.850404-0.737017 0.878751-0.680323 0.907097-0.70867 0.935445-0.651977 0.935445-0.651976 0.963791-0.595283 0.963791-0.595283 0.992139-0.566936 1.020485-0.53859 1.020485-0.538589 1.048831-0.481896 1.077179-0.453549 1.048832-0.425202 1.105525-0.396855 1.077179-0.396855 1.105525-0.340162 1.105526-0.283468 1.133872-0.283468 1.105525-0.255121 1.133872-0.226775 1.133873-0.198427 1.133872-0.141734 1.105525-0.141734 1.133873-0.085041 1.133872-0.08504 1.133872-0.028347 1.105525-0.028347z" fill="" p-id="13003"></path><path d="M512 422.055586m-52.384896 0a52.384896 52.384896 0 1 0 104.769792 0 52.384896 52.384896 0 1 0-104.769792 0Z" fill="" p-id="13004"></path><path d="M289.98782 422.055586m-52.384897 0a52.384896 52.384896 0 1 0 104.769793 0 52.384896 52.384896 0 1 0-104.769793 0Z" fill="" p-id="13005"></path><path d="M734.01218 422.055586m-52.384896 0a52.384896 52.384896 0 1 0 104.769793 0 52.384896 52.384896 0 1 0-104.769793 0Z" fill="" p-id="13006"></path></svg>